<svg xmlns="http://www.w3.org/2000/svg" viewBox="0 0 1080 1080"><defs><style>.cls-1{fill:#fad2aa;}</style></defs><g id="Ebene_3" data-name="Ebene 3"><path class="cls-1" d="M648.14,459.21l-97.76,94.9c-7.58,7.37-15.36,14.94-23.24,22.56L390.58,709.27c-23.06,22.38-34.24,51.68-31.48,82.66.47,4.09,1,7.77,1.74,11.28.55,2.59,1.17,5.17,1.84,7.8A128.25,128.25,0,0,0,416,884.78a129.93,129.93,0,0,0,71.73,21.62,132.46,132.46,0,0,0,25.54-2.5,128.66,128.66,0,0,0,82.54-54.52,126.14,126.14,0,0,0,19.39-96.27L576.38,559.56c39.34-35.89,71.76-65,71.76-65ZM562.27,763.55A73.53,73.53,0,0,1,551,819.64h0a76.22,76.22,0,0,1-105,20.62,74.06,74.06,0,0,1-28.74-35.68l-.21-.47c-.28-.56-27.48-56.69,9.65-101.55l.87-1c1.12-1.37,3.19-3.6,6.35-6.85,7.22-7.51,19.63-19.87,37-36.85,16.35-15.87,37.28-35.49,59-55.58Z"/><path class="cls-1" d="M431.86,620.79l97.76-94.9c7.58-7.37,15.36-14.94,23.24-22.56l136.56-132.6c23.06-22.38,34.24-51.68,31.48-82.66-.47-4.09-1-7.77-1.74-11.28-.55-2.59-1.17-5.17-1.84-7.8A128.25,128.25,0,0,0,664,195.22a129.93,129.93,0,0,0-71.73-21.62,132.46,132.46,0,0,0-25.54,2.5,128.66,128.66,0,0,0-82.54,54.52,126.14,126.14,0,0,0-19.39,96.27l38.83,193.55c-39.34,35.89-71.76,65-71.76,65Zm85.87-304.34A73.53,73.53,0,0,1,529,260.36h0a76.22,76.22,0,0,1,105-20.62,74.06,74.06,0,0,1,28.74,35.68l.21.47c.28.56,27.48,56.69-9.65,101.55l-.87,1c-1.12,1.37-3.19,3.6-6.35,6.85-7.22,7.51-19.63,19.87-37,36.85-16.35,15.87-37.28,35.49-59,55.58Z"/></g></svg>