<svg xmlns="http://www.w3.org/2000/svg" viewBox="0 0 1363.06 597.14"><defs><style>.cls-1{fill:#fad2aa;}</style></defs><g id="Ebene_1" data-name="Ebene 1"><path class="cls-1" d="M543.25,251.75l8.18-.55v-9.48c0-11.77,5.8-17.57,17.3-17.57,5.43,0,10.85,2.39,13.43,8.28l-9.2,4.88c-.55-6.35-3.59-10.77-7.08-10.77-6.72,0-6.63,10.86-6.63,22.08v2.12l17.85-1.11-1.1,6.63-16.75-1.2v25.76c0,13.52,3,15.55,3,15.55H549.69s1.74-2,1.74-22v-20l-8.18-.55Z"/><path class="cls-1" d="M604.41,269.23c4.87,0,9.29.28,11.68.46-.55-12.51-5.15-16.38-12.88-16.38-6.26,0-12.6,5.16-16.1,12.61h-.18l-1.48-10.12c7-6.9,13.34-9,20.8-9,10.11.1,17.66,6.07,17.66,21.16V281.1c0,9.66,1.84,11.59,2.57,12v.18l-10.67,4.05.09-12.05c-5,7.17-11.86,11.77-19.5,11.77-8.46,0-14-5.61-14-12.51C582.42,275.67,588.67,269.23,604.41,269.23Zm-5,21.53c6.71,0,12.14-3.87,16.56-9.85l.09-8.28c-22,.1-24.93,5.71-24.93,10.31C591.16,289.1,596.22,290.76,599.44,290.76Z"/><path class="cls-1" d="M635.22,232l11.87-7.82v32.11c3.77-5.06,10-9.66,18.21-9.66,10.86,0,19.78,9.2,19.78,24.38,0,13.52-12.79,26.22-25,26.22-5.25,0-10.77-1.66-14.08-5.16l-8.09,5.52-.19-.18a43.37,43.37,0,0,0,1.56-12V239.7c0-6.62-3-7.45-4-7.54ZM662,292.6c8.28.18,14.35-6.72,14.35-19.78C676.34,261.41,670,253,662,253c-7.18,0-12,3.22-14.9,7.63V281.1C649.75,289.19,656.38,292.6,662,292.6Z"/><path class="cls-1" d="M694.62,253.13,707,247.61v33.21c0,13.52,3,15.55,3,15.55H697.47s1.66-2,1.66-22l.09-10.58c0-8.19-3.31-10-4.6-10.39Zm3.5-19.5a4.69,4.69,0,1,1,4.69,4.69A4.7,4.7,0,0,1,698.12,233.63Z"/><path class="cls-1" d="M742.75,269.23c4.88,0,9.3.28,11.69.46-.55-12.51-5.15-16.38-12.88-16.38-6.26,0-12.61,5.16-16.1,12.61h-.19L723.8,255.8c7-6.9,13.34-9,20.79-9,10.12.1,17.67,6.07,17.67,21.16V281.1c0,9.66,1.84,11.59,2.57,12v.18l-10.67,4.05.09-12.05c-5,7.17-11.86,11.77-19.5,11.77-8.46,0-14-5.61-14-12.51C720.77,275.67,727,269.23,742.75,269.23Zm-5,21.53c6.71,0,12.14-3.87,16.56-9.85l.09-8.28c-22,.1-24.93,5.71-24.93,10.31C729.51,289.1,734.57,290.76,737.79,290.76Z"/><path class="cls-1" d="M786.21,247.61v11.87c3.77-6.44,10.48-12.6,18.39-12.6,9.76,0,17,6,17,21.06v12.88c.37,13.52,2.12,15.55,2.12,15.55H813.07s.64-2,.73-22v-2.94c0-13-4.41-17.39-12.6-17.57-6,0-11.77,3.95-15,10.3v16.65c0,13.52,2.11,15.55,2.11,15.55H777.65s.74-2,.74-22l.09-10.58c0-9.47-2.12-10.76-2.49-10.76Z"/><path class="cls-1" d="M582.53,353.32h-.28c-3.68-6.44-10.58-8.93-16.74-8.93-5.71,0-10.21,1.57-10.21,5.8,0,3.59,2.3,5.8,11.13,9l3.4,1.28c12.51,4.88,15.55,8.28,15.55,14.17,0,7.64-6.81,14.44-18.68,14.44-8,0-15.91-3.77-20-7.72l1-10.86.19-.09c3.68,7.54,14,12.79,21.06,12.79s9.66-2.86,9.66-6.08c0-3.86-2.48-6-11.22-9.38L563,366.2c-10.39-3.87-14.71-6.9-14.71-14s8.09-13.43,18.3-13.43A32.05,32.05,0,0,1,584.55,344Z"/><path class="cls-1" d="M617.81,344.12c-9.57,0-14.35,5.89-14.35,18.86,0,12.6,7.08,20.33,17,20.33,8.55,0,14.81-6.26,17.29-11.78H638v4.88c-1.66,4-7.64,12.42-20.15,12.42-11,0-23.37-8.1-23.37-24,0-14.17,13.53-26.22,26.31-26.22,8.19,0,15.09,3.68,18,9.11L634.55,357H634C632.44,351.57,626.37,344.12,617.81,344.12Z"/><path class="cls-1" d="M647.08,323.79l11.86-7.64v35.33c3.77-6.44,10.49-12.6,18.4-12.6,9.75,0,17,6,17,21.06v12.88c.37,13.52,2.12,15.55,2.12,15.55H685.8s.65-2,.74-22v-2.94c0-13-4.41-17.39-12.6-17.57-6,0-11.78,3.95-15,10.3v16.65c0,13.52,2.12,15.55,2.12,15.55H650.39s.73-2,.73-22V331.61c0-6.44-2.94-7.36-4-7.55Z"/><path class="cls-1" d="M711.35,340.81c.18,5.24,1.83,9.93,12.51,37.9l9.38-30-3.31-7.91h11a41.92,41.92,0,0,0,2.2,9.93l8.74,28.15C761.39,351.75,763,345.5,763,340.62h8.56l-19.23,47.75h-2.76l-13.24-32.11L724.5,388.37h-2.76l-22.26-47.56Z"/><path class="cls-1" d="M797.57,361.23c4.87,0,9.29.28,11.68.46-.55-12.51-5.15-16.38-12.88-16.38-6.26,0-12.6,5.16-16.1,12.61h-.18l-1.47-10.12c7-6.9,13.33-9,20.79-9,10.12.1,17.66,6.07,17.66,21.16V373.1c0,9.66,1.84,11.59,2.57,12v.18L809,389.29l.1-12.05c-5,7.17-11.87,11.77-19.51,11.77-8.46,0-14-5.61-14-12.51C775.58,367.67,781.84,361.23,797.57,361.23Zm-5,21.53c6.71,0,12.14-3.87,16.56-9.85l.09-8.28c-22,.1-24.93,5.71-24.93,10.31C784.32,381.1,789.38,382.76,792.6,382.76Z"/><path class="cls-1" d="M841,339.61v10.76c2.94-6,7.82-11.49,14.35-11.49,5.43,0,8.74,2.2,10.49,4.69l-2.21,9.84-.37-.09c-.83-4.79-5.24-7.64-10.58-7.64-5,0-9,3.87-11.68,9.94v17.2c0,13.52,2.11,15.55,2.11,15.55H832.46s.74-2,.74-22l.09-10.58c0-9.47-2.11-10.76-2.48-10.76Z"/><path class="cls-1" d="M869.94,388c28.24-35.88,30.18-38.36,32.66-43.33l-20.42,1.47c-4.6.74-9,2.39-10.68,3.5l-.18-.09,1.38-9.2,32,.55H915.3l-26.5,34.59a36.9,36.9,0,0,0-5.52,9.2l21-1.29a29.39,29.39,0,0,0,10.4-3.68l.19.09-1.38,8.83-43.61-.27Z"/><path class="cls-1" d="M922.73,345.13l12.33-5.52v33.21c0,13.52,3,15.55,3,15.55H925.58s1.66-2,1.66-22l.09-10.58c0-8.19-3.31-10-4.6-10.39Zm3.5-19.5a4.69,4.69,0,1,1,4.69,4.69A4.7,4.7,0,0,1,926.23,325.63Z"/><path class="cls-1" d="M960.4,339.61v11.87c3.77-6.44,10.49-12.6,18.4-12.6,9.75,0,17,6,17,21.06v12.88c.37,13.52,2.12,15.55,2.12,15.55H987.27s.64-2,.73-22v-2.94c0-13-4.41-17.39-12.6-17.57-6,0-11.78,3.95-15,10.3v16.65c0,13.52,2.12,15.55,2.12,15.55H951.85s.73-2,.73-22l.1-10.58c0-9.47-2.12-10.76-2.49-10.76Z"/><path class="cls-1" d="M1018.21,383.68c-5.06-.74-8.83-2.3-8.83-6.26,0-4.23,4.78-6.62,9.75-8.37a14.25,14.25,0,0,1-9.39-13.8c0-9.11,9.48-16.65,21.53-16.65,6,0,10.76,1.47,13.89,4.23,3.41.09,6.9-1.2,10.86-3.68l1.19,8.28-9.1-.46a15.77,15.77,0,0,1,1.38,6.81c0,8.19-9.11,16.65-22.45,16.65a21,21,0,0,1-5-.55c-3,1.1-5.15,2.3-5.15,4.23,0,7.73,36.34-.37,36.34,15.09,0,8.74-11.69,16.1-26,16.1-8.09,0-18.85-2.86-18.85-10.68C1008.46,390.21,1012.78,386.44,1018.21,383.68Zm12.23,18.3c8.37,0,14.35-4.87,14.35-9.1,0-8.38-13.15-7.82-23.36-8.74-3.59,1.84-4.51,4.32-4.51,7.72C1016.92,398.3,1021.24,402,1030.44,402Zm1.38-35.23c5.43,0,9.85-4.23,9.85-10.4,0-9.1-6.08-14.35-14.17-14.35-6.62,0-9.94,3.41-9.94,10.67C1017.56,360.77,1023.27,366.75,1031.82,366.75Z"/><path class="cls-1" d="M1086.17,338.6c11.69,0,20.61,8.46,20.61,25.76h-36.34c.92,11.13,7.27,18.95,17.48,18.95,9.29,0,14.45-6.35,16.84-12h.18v5.06c-1.65,4-7,12.42-20.7,12.42-12.32,0-22.54-8.65-22.54-24.56C1061.7,349.73,1074.49,338.6,1086.17,338.6Zm11.69,20.7c-1.2-11-6.63-15.37-15.27-15.37-7.27,0-12,4.7-12.24,16.66Z"/><path class="cls-1" d="M1127.5,339.61v10.76c2.94-6,7.82-11.49,14.35-11.49,5.43,0,8.74,2.2,10.49,4.69l-2.21,9.84-.37-.09c-.82-4.79-5.24-7.64-10.58-7.64-5,0-9,3.87-11.68,9.94v17.2c0,13.52,2.12,15.55,2.12,15.55H1119s.73-2,.73-22l.09-10.58c0-9.47-2.11-10.76-2.48-10.76Z"/></g><g id="Ebene_3" data-name="Ebene 3"><path class="cls-1" d="M364.41,331.53c-4.06,4-7,6.88-8.66,8.64-.74.76-1.23,1.29-1.49,1.61l-.2.23c-8.71,10.51-2.33,23.67-2.27,23.8l0,.11a17.32,17.32,0,0,0,6.74,8.36,17.85,17.85,0,0,0,24.61-4.83h0a17.24,17.24,0,0,0,2.65-13.15l-7.6-37.79C373.15,323.22,368.25,327.82,364.41,331.53Z"/><path class="cls-1" d="M409.39,241.9a17.4,17.4,0,0,0-6.73-8.36,17.75,17.75,0,0,0-13.33-2.62,17.57,17.57,0,0,0-11.28,7.45h0a17.25,17.25,0,0,0-2.64,13.14l7.6,37.79c5.09-4.7,10-9.3,13.82-13,4.07-4,7-6.88,8.67-8.64.74-.76,1.22-1.28,1.49-1.6l.2-.24c8.7-10.51,2.33-23.66,2.26-23.8Z"/><path class="cls-1" d="M380.62,186.92c-65.37,0-118.35,52.38-118.35,117s53,117,118.35,117S499,368.53,499,303.91,446,186.92,380.62,186.92ZM406,293.27s-7.6,6.81-16.82,15.22l9.1,45.37a29.55,29.55,0,0,1-4.54,22.56,30.16,30.16,0,0,1-19.34,12.77,30.48,30.48,0,0,1-22.8-4.48,30,30,0,0,1-12.5-17.29c-.16-.61-.3-1.22-.43-1.82-.17-.83-.3-1.69-.41-2.65a23.7,23.7,0,0,1,7.38-19.37l32-31.08c1.85-1.78,3.67-3.55,5.45-5.28L406,285Zm9.67-29-32,31.08c-1.85,1.78-3.67,3.56-5.44,5.29l-22.91,22.24v-8.3s7.59-6.81,16.81-15.22L363,254a29.55,29.55,0,0,1,4.55-22.56,30.12,30.12,0,0,1,19.34-12.78,31.16,31.16,0,0,1,6-.59,30.47,30.47,0,0,1,16.82,5.07,30,30,0,0,1,12.49,17.29c.16.61.31,1.22.43,1.83.17.82.3,1.68.41,2.64A23.64,23.64,0,0,1,415.63,264.24Z"/></g></svg>