<svg xmlns="http://www.w3.org/2000/svg" viewBox="0 0 890.07 233.99"><defs><style>.cls-1{fill:#fad2aa;}</style></defs><g id="Ebene_1" data-name="Ebene 1"><path class="cls-1" d="M281,64.83l8.19-.55V54.81c0-11.78,5.79-17.57,17.29-17.57,5.43,0,10.86,2.39,13.43,8.28l-9.2,4.87c-.55-6.35-3.58-10.76-7.08-10.76-6.71,0-6.62,10.85-6.62,22.08v2.11l17.84-1.1-1.1,6.62L297,68.15V93.91c0,13.52,2.94,15.54,2.94,15.54H287.42s1.75-2,1.75-22v-20L281,67Z"/><path class="cls-1" d="M342.14,82.31c4.88,0,9.29.28,11.68.46-.55-12.51-5.15-16.37-12.88-16.37-6.25,0-12.6,5.15-16.09,12.6h-.19l-1.47-10.12c7-6.9,13.34-9,20.79-9C354.1,60,361.64,65.94,361.64,81V94.18c0,9.66,1.84,11.59,2.58,12v.18l-10.67,4.05.09-12.05c-5,7.18-11.87,11.78-19.5,11.78-8.47,0-14-5.62-14-12.51C320.15,88.75,326.41,82.31,342.14,82.31Zm-5,21.53c6.72,0,12.15-3.86,16.56-9.84l.09-8.28c-22,.09-24.93,5.7-24.93,10.3C328.89,102.19,334,103.84,337.17,103.84Z"/><path class="cls-1" d="M373,45.06l11.87-7.82v32.1c3.77-5.06,10-9.66,18.21-9.66,10.86,0,19.78,9.2,19.78,24.38,0,13.53-12.78,26.22-25,26.22-5.24,0-10.76-1.66-14.07-5.15l-8.1,5.52-.18-.19A43.27,43.27,0,0,0,377,98.51V52.78c0-6.62-3-7.45-4.05-7.54Zm26.77,60.62c8.28.18,14.35-6.71,14.35-19.78,0-11.41-6.34-19.78-14.35-19.78-7.17,0-12.05,3.22-14.9,7.64V94.18C387.49,102.28,394.11,105.68,399.72,105.68Z"/><path class="cls-1" d="M432.35,66.22l12.33-5.53V93.91c0,13.52,3,15.54,3,15.54H435.21s1.65-2,1.65-22L437,76.89c0-8.19-3.31-10-4.6-10.4Zm3.5-19.51a4.69,4.69,0,1,1,4.69,4.69A4.72,4.72,0,0,1,435.85,46.71Z"/><path class="cls-1" d="M480.49,82.31c4.87,0,9.29.28,11.68.46C491.62,70.26,487,66.4,479.29,66.4c-6.25,0-12.6,5.15-16.1,12.6H463l-1.47-10.12c7-6.9,13.34-9,20.79-9C492.45,60,500,65.94,500,81V94.18c0,9.66,1.84,11.59,2.58,12v.18l-10.67,4.05L492,98.32c-5,7.18-11.87,11.78-19.51,11.78-8.46,0-14-5.62-14-12.51C458.5,88.75,464.76,82.31,480.49,82.31Zm-5,21.53c6.72,0,12.14-3.86,16.56-9.84l.09-8.28c-22,.09-24.93,5.7-24.93,10.3C467.24,102.19,472.3,103.84,475.52,103.84Z"/><path class="cls-1" d="M523.94,60.69V72.56c3.77-6.44,10.49-12.6,18.4-12.6,9.75,0,17,6,17,21.07V93.91c.37,13.52,2.11,15.54,2.11,15.54H550.8s.65-2,.74-22v-3c0-13-4.42-17.38-12.6-17.57-6,0-11.78,4-15,10.3V93.91c0,13.52,2.12,15.54,2.12,15.54H515.38s.74-2,.74-22l.09-10.58c0-9.48-2.11-10.77-2.48-10.77Z"/><path class="cls-1" d="M320.26,166.4H320c-3.68-6.44-10.58-8.92-16.75-8.92-5.7,0-10.21,1.56-10.21,5.8,0,3.58,2.3,5.79,11.13,9l3.41,1.29c12.51,4.87,15.54,8.28,15.54,14.17,0,7.63-6.8,14.44-18.67,14.44-8,0-15.92-3.77-20-7.73l1-10.85.18-.1c3.68,7.55,14,12.79,21.07,12.79s9.66-2.85,9.66-6.07c0-3.86-2.49-6-11.22-9.38l-4.42-1.57c-10.4-3.86-14.72-6.9-14.72-14s8.1-13.43,18.31-13.43a32.1,32.1,0,0,1,17.94,5.24Z"/><path class="cls-1" d="M355.54,157.2c-9.56,0-14.35,5.89-14.35,18.86,0,12.61,7.09,20.33,17,20.33,8.56,0,14.81-6.25,17.3-11.77h.18v4.87c-1.65,4-7.63,12.42-20.15,12.42-11,0-23.36-8.09-23.36-24,0-14.17,13.52-26.22,26.31-26.22,8.19,0,15.09,3.68,18,9.11l-4.23,9.29h-.55C370.17,164.65,364.1,157.2,355.54,157.2Z"/><path class="cls-1" d="M384.81,136.87l11.87-7.63v35.32c3.77-6.44,10.48-12.6,18.4-12.6,9.75,0,17,6,17,21.07v12.88c.36,13.52,2.11,15.54,2.11,15.54H423.54s.64-2,.74-22v-2.95c0-13-4.42-17.38-12.61-17.57-6,0-11.77,4-15,10.3v16.66c0,13.52,2.11,15.54,2.11,15.54H388.12s.74-2,.74-22V144.69c0-6.44-2.95-7.36-4.05-7.54Z"/><path class="cls-1" d="M449.08,153.89c.18,5.25,1.84,9.94,12.51,37.9l9.38-30-3.31-7.91h10.95a42.11,42.11,0,0,0,2.21,9.94L489.56,192c9.56-27.14,11.13-33.4,11.13-38.27h8.55L490,201.45h-2.76L474,169.35l-11.78,32.1h-2.75l-22.27-47.56Z"/><path class="cls-1" d="M535.3,174.31c4.88,0,9.29.28,11.68.46-.55-12.51-5.15-16.37-12.88-16.37-6.25,0-12.6,5.15-16.09,12.6h-.19l-1.47-10.12c7-6.9,13.34-9,20.79-9,10.12.09,17.66,6.07,17.66,21.16v13.15c0,9.66,1.84,11.59,2.58,12v.18l-10.67,4.05.09-12.05c-5,7.18-11.87,11.78-19.5,11.78-8.47,0-14-5.62-14-12.51C513.31,180.75,519.57,174.31,535.3,174.31Zm-5,21.53c6.72,0,12.15-3.86,16.56-9.84l.09-8.28c-22,.09-24.93,5.7-24.93,10.3C522.05,194.19,527.11,195.84,530.33,195.84Z"/><path class="cls-1" d="M578.75,152.69v10.77c3-6,7.82-11.5,14.35-11.5,5.43,0,8.74,2.21,10.49,4.69l-2.21,9.84-.36-.09c-.83-4.78-5.25-7.63-10.58-7.63-5,0-9,3.86-11.69,9.93v17.21c0,13.52,2.12,15.54,2.12,15.54H570.2s.73-2,.73-22l.1-10.58c0-9.48-2.12-10.77-2.49-10.77Z"/><path class="cls-1" d="M607.68,201.08c28.24-35.87,30.17-38.36,32.65-43.32l-20.42,1.47c-4.6.73-9,2.39-10.67,3.49l-.18-.09,1.38-9.2,32,.55H653l-26.5,34.59a37.26,37.26,0,0,0-5.52,9.2l21-1.29a29.42,29.42,0,0,0,10.4-3.67l.18.09-1.38,8.83-43.61-.28Z"/><path class="cls-1" d="M660.46,158.22l12.33-5.53v33.22c0,13.52,3,15.54,3,15.54H663.32s1.65-2,1.65-22l.09-10.58c0-8.19-3.31-10-4.6-10.4Zm3.5-19.51a4.69,4.69,0,1,1,4.69,4.69A4.72,4.72,0,0,1,664,138.71Z"/><path class="cls-1" d="M698.14,152.69v11.87c3.77-6.44,10.49-12.6,18.4-12.6,9.75,0,17,6,17,21.07v12.88c.36,13.52,2.11,15.54,2.11,15.54H725s.64-2,.74-22v-2.95c0-13-4.42-17.38-12.61-17.57-6,0-11.77,4-15,10.3v16.66c0,13.52,2.11,15.54,2.11,15.54H689.58s.74-2,.74-22l.09-10.58c0-9.48-2.12-10.77-2.48-10.77Z"/><path class="cls-1" d="M755.94,196.76c-5.06-.73-8.83-2.3-8.83-6.25,0-4.24,4.78-6.63,9.75-8.38a14.24,14.24,0,0,1-9.38-13.8c0-9.1,9.47-16.65,21.53-16.65,6,0,10.76,1.47,13.89,4.23,3.4.1,6.9-1.19,10.85-3.68l1.2,8.29-9.11-.46a15.76,15.76,0,0,1,1.38,6.8c0,8.19-9.11,16.65-22.45,16.65a21,21,0,0,1-5-.55c-3,1.11-5.15,2.3-5.15,4.23,0,7.73,36.34-.36,36.34,15.09,0,8.74-11.68,16.1-25.94,16.1-8.1,0-18.86-2.85-18.86-10.67C746.19,203.29,750.51,199.52,755.94,196.76Zm12.24,18.31c8.37,0,14.35-4.88,14.35-9.11,0-8.37-13.16-7.82-23.37-8.74-3.59,1.84-4.51,4.32-4.51,7.73C754.65,211.39,759,215.07,768.18,215.07Zm1.38-35.24c5.42,0,9.84-4.23,9.84-10.39,0-9.11-6.07-14.35-14.17-14.35-6.62,0-9.93,3.4-9.93,10.67C755.3,173.85,761,179.83,769.56,179.83Z"/><path class="cls-1" d="M823.91,151.68c11.68,0,20.61,8.47,20.61,25.76H808.18c.92,11.13,7.27,18.95,17.48,18.95,9.29,0,14.44-6.34,16.83-12h.19v5.06c-1.66,4-7,12.42-20.7,12.42-12.33,0-22.54-8.64-22.54-24.56C799.44,162.82,812.23,151.68,823.91,151.68Zm11.68,20.7C834.4,161.34,829,157,820.32,157c-7.27,0-12,4.69-12.23,16.65Z"/><path class="cls-1" d="M865.24,152.69v10.77c2.94-6,7.81-11.5,14.35-11.5,5.42,0,8.74,2.21,10.48,4.69l-2.2,9.84-.37-.09c-.83-4.78-5.25-7.63-10.58-7.63-5,0-9,3.86-11.68,9.93v17.21c0,13.52,2.11,15.54,2.11,15.54H856.68s.74-2,.74-22l.09-10.58c0-9.48-2.12-10.77-2.49-10.77Z"/></g><g id="Ebene_3" data-name="Ebene 3"><path class="cls-1" d="M102.15,144.62c-4.07,4-7,6.88-8.67,8.64-.74.76-1.22,1.28-1.49,1.6l-.2.24c-8.7,10.51-2.33,23.66-2.26,23.79l0,.11a17.38,17.38,0,0,0,6.73,8.37A17.84,17.84,0,0,0,109.64,190a17.59,17.59,0,0,0,11.29-7.46h0a17.26,17.26,0,0,0,2.64-13.14l-7.6-37.8C110.89,136.3,106,140.9,102.15,144.62Z"/><path class="cls-1" d="M147.13,55a17.28,17.28,0,0,0-6.74-8.36,17.85,17.85,0,0,0-24.61,4.83h0a17.24,17.24,0,0,0-2.65,13.15l7.6,37.79c5.09-4.71,10-9.31,13.83-13,4.06-4,7-6.87,8.66-8.63.74-.76,1.23-1.29,1.49-1.61l.21-.23c8.7-10.52,2.32-23.67,2.26-23.8Z"/><path class="cls-1" d="M118.35,0C53,0,0,52.38,0,117S53,234,118.35,234s118.36-52.38,118.36-117S183.72,0,118.35,0ZM143.7,106.36s-7.6,6.81-16.82,15.22l9.1,45.36a29.56,29.56,0,0,1-4.55,22.56,30.12,30.12,0,0,1-19.34,12.78,31.15,31.15,0,0,1-6,.58,30.54,30.54,0,0,1-16.82-5.06A30.07,30.07,0,0,1,76.8,180.51c-.16-.62-.31-1.22-.43-1.83-.17-.82-.3-1.68-.41-2.64a23.67,23.67,0,0,1,7.38-19.38l32-31.07,5.45-5.29L143.7,98.06Zm9.67-29-32,31.07-5.45,5.29L93,135.93v-8.29s7.6-6.82,16.82-15.23l-9.1-45.36a29.55,29.55,0,0,1,4.54-22.56,30.17,30.17,0,0,1,19.34-12.78,31.25,31.25,0,0,1,6-.58,30.42,30.42,0,0,1,16.81,5.07,30.05,30.05,0,0,1,12.5,17.28c.16.62.3,1.22.43,1.83.17.82.3,1.69.41,2.65A23.72,23.72,0,0,1,153.37,77.33Z"/></g></svg>